<svg width="20" height="20" viewBox="0 0 20 20" fill="none" xmlns="http://www.w3.org/2000/svg">
<path d="M8 13.9193V6.47133C8.00003 6.3395 8.03914 6.21064 8.1124 6.10103C8.18565 5.99142 8.28976 5.906 8.41156 5.85555C8.53336 5.8051 8.66738 5.7919 8.79669 5.81761C8.92599 5.84332 9.04476 5.90679 9.138 6L12.862 9.724C12.987 9.84902 13.0572 10.0186 13.0572 10.1953C13.0572 10.3721 12.987 10.5416 12.862 10.6667L9.138 14.3907C9.04476 14.4839 8.92599 14.5473 8.79669 14.5731C8.66738 14.5988 8.53336 14.5856 8.41156 14.5351C8.28976 14.4847 8.18565 14.3992 8.1124 14.2896C8.03914 14.18 8.00003 14.0512 8 13.9193Z" fill="#883DCF"/>
</svg>
