<svg width="20" height="20" viewBox="0 0 20 20" fill="none" xmlns="http://www.w3.org/2000/svg">
<path d="M10.8602 14.3934L7.14015 10.6667C7.01598 10.5418 6.94629 10.3729 6.94629 10.1967C6.94629 10.0206 7.01598 9.85164 7.14015 9.72673L10.8602 6.00007C10.9534 5.90605 11.0725 5.84193 11.2024 5.81588C11.3322 5.78983 11.4668 5.80304 11.5891 5.85382C11.7114 5.9046 11.8158 5.99064 11.889 6.10099C11.9622 6.21134 12.0009 6.34098 12.0002 6.4734V13.9201C12.0009 14.0525 11.9622 14.1821 11.889 14.2925C11.8158 14.4028 11.7114 14.4889 11.5891 14.5396C11.4668 14.5904 11.3322 14.6036 11.2024 14.5776C11.0725 14.5515 10.9534 14.4874 10.8602 14.3934Z" fill="#883DCF"/>
</svg>
