<svg width="264" height="48" viewBox="0 0 264 48" fill="none" xmlns="http://www.w3.org/2000/svg">
<g clip-path="url(#clip0_3_169)">
<path d="M27 29.2501C27.0012 30.2443 27.3967 31.1974 28.0997 31.9004C28.8027 32.6034 29.7558 32.9989 30.75 33.0001H41.25C42.2442 32.9989 43.1973 32.6034 43.9003 31.9004C44.6033 31.1974 44.9988 30.2443 45 29.2501V22.5001H27V29.2501ZM39.75 25.8751C39.9725 25.8751 40.19 25.941 40.375 26.0647C40.56 26.1883 40.7042 26.364 40.7894 26.5695C40.8745 26.7751 40.8968 27.0013 40.8534 27.2195C40.81 27.4378 40.7028 27.6382 40.5455 27.7956C40.3882 27.9529 40.1877 28.06 39.9695 28.1034C39.7512 28.1469 39.525 28.1246 39.3195 28.0394C39.1139 27.9543 38.9382 27.8101 38.8146 27.6251C38.691 27.4401 38.625 27.2226 38.625 27.0001C38.625 26.7017 38.7435 26.4155 38.9545 26.2046C39.1655 25.9936 39.4516 25.8751 39.75 25.8751ZM36 25.8751C36.2225 25.8751 36.44 25.941 36.625 26.0647C36.81 26.1883 36.9542 26.364 37.0394 26.5695C37.1245 26.7751 37.1468 27.0013 37.1034 27.2195C37.06 27.4378 36.9528 27.6382 36.7955 27.7956C36.6382 27.9529 36.4377 28.06 36.2195 28.1034C36.0012 28.1469 35.775 28.1246 35.5695 28.0394C35.3639 27.9543 35.1882 27.8101 35.0646 27.6251C34.941 27.4401 34.875 27.2226 34.875 27.0001C34.875 26.7017 34.9935 26.4155 35.2045 26.2046C35.4155 25.9936 35.7016 25.8751 36 25.8751ZM32.25 25.8751C32.4725 25.8751 32.69 25.941 32.875 26.0647C33.06 26.1883 33.2042 26.364 33.2894 26.5695C33.3745 26.7751 33.3968 27.0013 33.3534 27.2195C33.31 27.4378 33.2028 27.6382 33.0455 27.7956C32.8882 27.9529 32.6877 28.06 32.4695 28.1034C32.2512 28.1469 32.025 28.1246 31.8195 28.0394C31.6139 27.9543 31.4382 27.8101 31.3146 27.6251C31.191 27.4401 31.125 27.2226 31.125 27.0001C31.125 26.7017 31.2435 26.4155 31.4545 26.2046C31.6655 25.9936 31.9516 25.8751 32.25 25.8751Z" fill="#883DCF"/>
<path d="M41.25 16.5H40.5V15.75C40.5 15.5511 40.421 15.3603 40.2803 15.2197C40.1397 15.079 39.9489 15 39.75 15C39.5511 15 39.3603 15.079 39.2197 15.2197C39.079 15.3603 39 15.5511 39 15.75V16.5H33V15.75C33 15.5511 32.921 15.3603 32.7803 15.2197C32.6397 15.079 32.4489 15 32.25 15C32.0511 15 31.8603 15.079 31.7197 15.2197C31.579 15.3603 31.5 15.5511 31.5 15.75V16.5H30.75C29.7558 16.5012 28.8027 16.8967 28.0997 17.5997C27.3967 18.3027 27.0012 19.2558 27 20.25V21H45V20.25C44.9988 19.2558 44.6033 18.3027 43.9003 17.5997C43.1973 16.8967 42.2442 16.5012 41.25 16.5Z" fill="#883DCF"/>
</g>
<path d="M61.166 18.738C61.908 18.738 62.566 18.8897 63.14 19.193C63.714 19.4917 64.176 19.8977 64.526 20.411C64.8807 20.9243 65.0907 21.496 65.156 22.126H63.357C63.287 21.7527 63.1563 21.419 62.965 21.125C62.7783 20.831 62.531 20.5977 62.223 20.425C61.915 20.2523 61.5463 20.166 61.117 20.166C60.5803 20.166 60.123 20.2943 59.745 20.551C59.3717 20.803 59.0847 21.2043 58.884 21.755C58.688 22.3057 58.59 23.0197 58.59 23.897C58.59 25.227 58.8093 26.1953 59.248 26.802C59.6867 27.4087 60.3097 27.712 61.117 27.712C61.5463 27.712 61.915 27.6187 62.223 27.432C62.531 27.2407 62.7783 26.9887 62.965 26.676C63.1563 26.3587 63.287 26.0133 63.357 25.64H65.156C65.1 26.0973 64.9833 26.536 64.806 26.956C64.6333 27.376 64.3883 27.7517 64.071 28.083C63.7537 28.4097 63.3547 28.6687 62.874 28.86C62.398 29.0467 61.8287 29.14 61.166 29.14C60.2373 29.14 59.4393 28.9277 58.772 28.503C58.1093 28.0737 57.5983 27.467 57.239 26.683C56.8843 25.8943 56.707 24.9587 56.707 23.876C56.707 22.798 56.8843 21.8763 57.239 21.111C57.5937 20.3457 58.1023 19.76 58.765 19.354C59.4323 18.9433 60.2327 18.738 61.166 18.738ZM68.794 29.14C68.332 29.14 67.9167 29.056 67.548 28.888C67.184 28.7153 66.897 28.4703 66.687 28.153C66.4817 27.831 66.379 27.4413 66.379 26.984C66.379 26.186 66.666 25.584 67.24 25.178C67.8187 24.772 68.7404 24.5597 70.005 24.541L71.083 24.513V24.023C71.083 23.6403 70.9687 23.3417 70.74 23.127C70.516 22.9077 70.166 22.8003 69.69 22.805C69.34 22.8097 69.018 22.8937 68.724 23.057C68.4347 23.2157 68.2434 23.484 68.15 23.862H66.701C66.729 23.3673 66.8714 22.9543 67.128 22.623C67.3894 22.287 67.7464 22.0373 68.199 21.874C68.6517 21.706 69.1744 21.622 69.767 21.622C70.4577 21.622 71.02 21.713 71.454 21.895C71.888 22.077 72.2077 22.3407 72.413 22.686C72.6184 23.0267 72.721 23.4397 72.721 23.925V29H71.286L71.153 27.698C70.8917 28.244 70.5604 28.622 70.159 28.832C69.7624 29.0373 69.3074 29.14 68.794 29.14ZM69.347 27.985C69.557 27.985 69.7647 27.9477 69.97 27.873C70.1754 27.7937 70.362 27.6887 70.53 27.558C70.698 27.4227 70.831 27.2733 70.929 27.11C71.0317 26.9467 71.083 26.7763 71.083 26.599V25.458L70.194 25.472C69.7554 25.4767 69.3727 25.5233 69.046 25.612C68.7194 25.7007 68.4627 25.843 68.276 26.039C68.094 26.2303 68.003 26.487 68.003 26.809C68.003 27.1777 68.1314 27.467 68.388 27.677C68.6447 27.8823 68.9644 27.985 69.347 27.985ZM76.8697 29.105C76.4031 29.105 76.0297 29.0467 75.7497 28.93C75.4697 28.8133 75.2597 28.657 75.1197 28.461C74.9797 28.265 74.8887 28.0457 74.8467 27.803C74.8047 27.5557 74.7837 27.3037 74.7837 27.047V18.598H76.4497V26.851C76.4497 27.1637 76.5127 27.4063 76.6387 27.579C76.7694 27.7517 76.9794 27.852 77.2687 27.88L77.6327 27.894V28.965C77.5067 29.0023 77.3784 29.035 77.2477 29.063C77.1171 29.091 76.9911 29.105 76.8697 29.105ZM80.47 25.773C80.4654 26.1837 80.5307 26.5477 80.666 26.865C80.8014 27.1823 81.002 27.432 81.268 27.614C81.534 27.7913 81.863 27.88 82.255 27.88C82.6564 27.88 83.004 27.7913 83.298 27.614C83.5967 27.432 83.795 27.1567 83.893 26.788H85.454C85.37 27.292 85.1694 27.719 84.852 28.069C84.5347 28.419 84.1497 28.685 83.697 28.867C83.249 29.049 82.7824 29.14 82.297 29.14C81.597 29.14 80.981 28.993 80.449 28.699C79.9217 28.4003 79.5087 27.9757 79.21 27.425C78.916 26.8743 78.769 26.2187 78.769 25.458C78.769 24.716 78.9044 24.058 79.175 23.484C79.4457 22.9053 79.8354 22.4503 80.344 22.119C80.8574 21.7877 81.4734 21.622 82.192 21.622C82.906 21.622 83.5057 21.7737 83.991 22.077C84.481 22.3803 84.8497 22.805 85.097 23.351C85.349 23.8923 85.475 24.527 85.475 25.255V25.773H80.47ZM80.47 24.716H83.865C83.865 24.366 83.8044 24.051 83.683 23.771C83.5617 23.4863 83.375 23.2623 83.123 23.099C82.8757 22.931 82.563 22.847 82.185 22.847C81.8117 22.847 81.4967 22.938 81.24 23.12C80.9834 23.302 80.7897 23.5377 80.659 23.827C80.5284 24.1117 80.4654 24.408 80.47 24.716ZM87.1327 29V21.762H88.7987V22.798C88.9107 22.6113 89.0624 22.4317 89.2537 22.259C89.4497 22.0863 89.6901 21.9463 89.9747 21.839C90.2594 21.7317 90.5931 21.678 90.9757 21.678C91.4237 21.678 91.8391 21.7667 92.2217 21.944C92.6091 22.1213 92.9194 22.399 93.1527 22.777C93.3907 23.155 93.5097 23.6427 93.5097 24.24V29H91.8017V24.443C91.8017 23.967 91.6711 23.6147 91.4097 23.386C91.1484 23.1527 90.8194 23.036 90.4227 23.036C90.1521 23.036 89.8954 23.0827 89.6527 23.176C89.4101 23.2647 89.2117 23.4023 89.0577 23.589C88.9084 23.771 88.8337 23.9997 88.8337 24.275V29H87.1327ZM98.0588 29.14C97.1022 29.14 96.3508 28.811 95.8048 28.153C95.2588 27.495 94.9858 26.5593 94.9858 25.346C94.9858 24.59 95.0955 23.9343 95.3148 23.379C95.5388 22.819 95.8655 22.3873 96.2948 22.084C96.7288 21.776 97.2655 21.622 97.9048 21.622C98.2035 21.622 98.4742 21.6593 98.7168 21.734C98.9642 21.804 99.1835 21.8973 99.3748 22.014C99.5662 22.1307 99.7272 22.259 99.8578 22.399C99.9932 22.539 100.098 22.679 100.173 22.819V18.598H101.881V29H100.621L100.432 27.516C100.376 27.6887 100.292 27.8707 100.18 28.062C100.073 28.2487 99.9255 28.4237 99.7388 28.587C99.5568 28.7503 99.3282 28.8833 99.0528 28.986C98.7775 29.0887 98.4462 29.14 98.0588 29.14ZM98.4088 27.887C99.0202 27.887 99.4658 27.6887 99.7458 27.292C100.031 26.8907 100.173 26.228 100.173 25.304C100.168 24.7767 100.103 24.3333 99.9768 23.974C99.8555 23.6147 99.6665 23.344 99.4098 23.162C99.1578 22.98 98.8312 22.889 98.4298 22.889C97.9165 22.889 97.4942 23.078 97.1628 23.456C96.8315 23.834 96.6658 24.45 96.6658 25.304C96.6658 26.1533 96.8175 26.7973 97.1208 27.236C97.4242 27.67 97.8535 27.887 98.4088 27.887ZM105.935 29.14C105.473 29.14 105.058 29.056 104.689 28.888C104.325 28.7153 104.038 28.4703 103.828 28.153C103.623 27.831 103.52 27.4413 103.52 26.984C103.52 26.186 103.807 25.584 104.381 25.178C104.96 24.772 105.881 24.5597 107.146 24.541L108.224 24.513V24.023C108.224 23.6403 108.11 23.3417 107.881 23.127C107.657 22.9077 107.307 22.8003 106.831 22.805C106.481 22.8097 106.159 22.8937 105.865 23.057C105.576 23.2157 105.384 23.484 105.291 23.862H103.842C103.87 23.3673 104.012 22.9543 104.269 22.623C104.53 22.287 104.887 22.0373 105.34 21.874C105.793 21.706 106.315 21.622 106.908 21.622C107.599 21.622 108.161 21.713 108.595 21.895C109.029 22.077 109.349 22.3407 109.554 22.686C109.759 23.0267 109.862 23.4397 109.862 23.925V29H108.427L108.294 27.698C108.033 28.244 107.701 28.622 107.3 28.832C106.903 29.0373 106.448 29.14 105.935 29.14ZM106.488 27.985C106.698 27.985 106.906 27.9477 107.111 27.873C107.316 27.7937 107.503 27.6887 107.671 27.558C107.839 27.4227 107.972 27.2733 108.07 27.11C108.173 26.9467 108.224 26.7763 108.224 26.599V25.458L107.335 25.472C106.896 25.4767 106.514 25.5233 106.187 25.612C105.86 25.7007 105.604 25.843 105.417 26.039C105.235 26.2303 105.144 26.487 105.144 26.809C105.144 27.1777 105.272 27.467 105.529 27.677C105.786 27.8823 106.105 27.985 106.488 27.985ZM111.925 29V21.762H113.556V23.33C113.672 22.9707 113.838 22.665 114.053 22.413C114.272 22.1563 114.529 21.9603 114.823 21.825C115.117 21.6897 115.436 21.622 115.782 21.622C115.866 21.622 115.947 21.6267 116.027 21.636C116.106 21.6453 116.164 21.6617 116.202 21.685V23.316C116.15 23.2927 116.083 23.2763 115.999 23.267C115.919 23.2577 115.849 23.253 115.789 23.253C115.439 23.225 115.128 23.239 114.858 23.295C114.592 23.351 114.365 23.4467 114.179 23.582C113.997 23.7127 113.859 23.8807 113.766 24.086C113.672 24.2867 113.626 24.5223 113.626 24.793V29H111.925Z" fill="#4A4C56"/>
<defs>
<clipPath id="clip0_3_169">
<rect width="18" height="18" fill="white" transform="translate(27 15)"/>
</clipPath>
</defs>
</svg>
