<svg width="24" height="24" viewBox="0 0 24 24" fill="none" xmlns="http://www.w3.org/2000/svg">
<g clip-path="url(#clip0_3_156)">
<path d="M12.0002 8.95936C12.631 8.95936 13.1424 8.44794 13.1424 7.8171C13.1424 7.18625 12.631 6.67484 12.0002 6.67484C11.3693 6.67484 10.8579 7.18625 10.8579 7.8171C10.8579 8.44794 11.3693 8.95936 12.0002 8.95936Z" fill="#883DCF"/>
<path d="M17.9999 3.00064H5.99986C4.33208 3.01382 2.98989 4.37483 2.99987 6.04264V15.1701C2.98989 16.838 4.33198 18.1993 5.99986 18.2129H8.1921L11.0031 20.6129C11.5599 21.1217 12.4107 21.1292 12.9763 20.6301L15.8601 18.2121H17.9998C19.6677 18.1985 21.0098 16.8373 20.9998 15.1694V6.04264C21.0099 4.37483 19.6677 3.01382 17.9999 3.00064ZM11.9999 5.28214C15.4611 5.37365 15.4604 10.5149 11.9999 10.6072C8.53863 10.5149 8.53937 5.37587 11.9999 5.28214ZM15.1866 15.9066C14.7853 16.0091 14.3769 15.7667 14.2745 15.3653C14.274 15.3635 14.2736 15.3617 14.2731 15.3599C13.8892 14.1042 12.5601 13.3975 11.3044 13.7813C10.5486 14.0124 9.95694 14.604 9.72586 15.3599C9.62106 15.7608 9.21107 16.0009 8.81011 15.8961C8.40915 15.7913 8.16907 15.3813 8.27387 14.9804C8.85381 12.9224 10.9923 11.7241 13.0503 12.3041C14.3474 12.6696 15.3611 13.6833 15.7266 14.9804C15.831 15.385 15.5901 15.7981 15.1866 15.9066Z" fill="#883DCF"/>
</g>
<defs>
<clipPath id="clip0_3_156">
<rect width="18" height="18" fill="white" transform="translate(3 3)"/>
</clipPath>
</defs>
</svg>
