<svg width="224" height="34" viewBox="0 0 224 34" fill="none" xmlns="http://www.w3.org/2000/svg">
<g clip-path="url(#clip0_3_115)">
<path d="M0 25.5H8.5V32C8.5 33.1046 7.60457 34 6.5 34H2C0.89543 34 0 33.1046 0 32V25.5Z" fill="#2BB2FE"/>
<rect y="17" width="8.5" height="8.5" fill="#2BB2FE"/>
<path d="M0 10.5C0 9.39543 0.895431 8.5 2 8.5H8.5V17H0V10.5Z" fill="#2BB2FE"/>
<path d="M8.5 2C8.5 0.89543 9.39543 0 10.5 0H17V8.5H8.5V2Z" fill="#883DCF"/>
<rect x="8.5" y="17" width="8.5" height="8.5" fill="#883DCF"/>
<path d="M17 0H23.5C24.6046 0 25.5 0.895431 25.5 2V8.5H17V0Z" fill="#F9C80E"/>
<path d="M17 17H25.5V23.5C25.5 24.6046 24.6046 25.5 23.5 25.5H17V17Z" fill="#F9C80E"/>
<path d="M25.5 8.5H32C33.1046 8.5 34 9.39543 34 10.5V15C34 16.1046 33.1046 17 32 17H25.5V8.5Z" fill="#F9C80E"/>
</g>
<path d="M48.1 26V8.648H54.256C55.504 8.648 56.62 8.864 57.604 9.296C58.596 9.72 59.376 10.348 59.944 11.18C60.512 12.012 60.796 13.036 60.796 14.252C60.796 15.396 60.536 16.376 60.016 17.192C59.504 18.008 58.788 18.632 57.868 19.064C56.948 19.496 55.872 19.712 54.64 19.712H51.064V26H48.1ZM51.04 17.372H54.568C55.584 17.372 56.412 17.068 57.052 16.46C57.7 15.852 58.024 15.06 58.024 14.084C58.024 13.092 57.688 12.324 57.016 11.78C56.344 11.228 55.5 10.952 54.484 10.952H51.04V17.372ZM66.3768 13.592V26H63.5687V13.592H66.3768ZM66.4128 8.66V11.42H63.5207V8.66H66.4128ZM81.7598 26H78.6638L75.3998 21.584L72.1478 26H69.0518L73.8158 19.544L69.4478 13.592H72.5438L75.4118 17.468L78.2798 13.592H81.3878L76.9838 19.544L81.7598 26ZM87.7879 26.18C86.9879 26.18 86.3479 26.08 85.8679 25.88C85.3879 25.68 85.0279 25.412 84.7879 25.076C84.5479 24.74 84.3919 24.364 84.3199 23.948C84.2479 23.524 84.2119 23.092 84.2119 22.652V8.168H87.0679V22.316C87.0679 22.852 87.1759 23.268 87.3919 23.564C87.6159 23.86 87.9759 24.032 88.4719 24.08L89.0959 24.104V25.94C88.8799 26.004 88.6599 26.06 88.4359 26.108C88.2119 26.156 87.9959 26.18 87.7879 26.18ZM95.3507 26.24C94.5587 26.24 93.8467 26.096 93.2147 25.808C92.5907 25.512 92.0987 25.092 91.7387 24.548C91.3867 23.996 91.2107 23.328 91.2107 22.544C91.2107 21.176 91.7027 20.144 92.6867 19.448C93.6787 18.752 95.2587 18.388 97.4267 18.356L99.2747 18.308V17.468C99.2747 16.812 99.0787 16.3 98.6867 15.932C98.3027 15.556 97.7027 15.372 96.8867 15.38C96.2867 15.388 95.7347 15.532 95.2307 15.812C94.7347 16.084 94.4067 16.544 94.2467 17.192H91.7627C91.8107 16.344 92.0547 15.636 92.4947 15.068C92.9427 14.492 93.5547 14.064 94.3307 13.784C95.1067 13.496 96.0027 13.352 97.0187 13.352C98.2027 13.352 99.1667 13.508 99.9107 13.82C100.655 14.132 101.203 14.584 101.555 15.176C101.907 15.76 102.083 16.468 102.083 17.3V26H99.6227L99.3947 23.768C98.9467 24.704 98.3787 25.352 97.6907 25.712C97.0107 26.064 96.2307 26.24 95.3507 26.24ZM96.2987 24.26C96.6587 24.26 97.0147 24.196 97.3667 24.068C97.7187 23.932 98.0387 23.752 98.3267 23.528C98.6147 23.296 98.8427 23.04 99.0107 22.76C99.1867 22.48 99.2747 22.188 99.2747 21.884V19.928L97.7507 19.952C96.9987 19.96 96.3427 20.04 95.7827 20.192C95.2227 20.344 94.7827 20.588 94.4627 20.924C94.1507 21.252 93.9947 21.692 93.9947 22.244C93.9947 22.876 94.2147 23.372 94.6547 23.732C95.0947 24.084 95.6427 24.26 96.2987 24.26ZM112.291 26.24C111.627 26.24 111.059 26.152 110.587 25.976C110.115 25.8 109.719 25.572 109.399 25.292C109.087 25.012 108.835 24.712 108.643 24.392C108.459 24.064 108.319 23.752 108.223 23.456L107.887 26H105.739V8.168H108.667V15.404C108.795 15.164 108.971 14.924 109.195 14.684C109.427 14.444 109.707 14.224 110.035 14.024C110.363 13.824 110.735 13.664 111.151 13.544C111.575 13.416 112.043 13.352 112.555 13.352C114.099 13.352 115.319 13.9 116.215 14.996C117.111 16.092 117.559 17.672 117.559 19.736C117.559 21.04 117.359 22.18 116.959 23.156C116.567 24.132 115.979 24.892 115.195 25.436C114.419 25.972 113.451 26.24 112.291 26.24ZM111.691 24.092C112.563 24.092 113.279 23.744 113.839 23.048C114.399 22.352 114.679 21.224 114.679 19.664C114.679 18.304 114.415 17.276 113.887 16.58C113.359 15.876 112.615 15.524 111.655 15.524C110.967 15.524 110.403 15.68 109.963 15.992C109.531 16.304 109.207 16.768 108.991 17.384C108.783 18 108.675 18.76 108.667 19.664C108.667 21.248 108.907 22.384 109.387 23.072C109.875 23.752 110.643 24.092 111.691 24.092Z" fill="#1D1F2C"/>
<defs>
<clipPath id="clip0_3_115">
<rect width="34" height="34" fill="white"/>
</clipPath>
</defs>
</svg>
